#!OML:ASF F:\VICON\USERDATA\INSTALL\rory3\rory3.ASF
:FULLY-SPECIFIED
:DEGREES
44
root 1.0077510091672868 17.86942788539064 1.1810852579978697 -1.3551307361566187 1.9223452965371104 2.5276708429136168
lfemur 14.050682180873519 -0.810830526835046 -26.84129445283139
ltibia 16.36790352223675
lfoot -11.979466503050439 -1.9242369943385775
ltoes -14.578979597052829
rfemur -27.700176320674714 4.551140405200184 17.496720799134813
rtibia 15.103987758490184
rfoot -7.605709024931041 -13.7839696402724
rtoes -3.838308292614201
lowerback 10.54419027882444 -0.9750063845556587 -5.1432456915823845
upperback -0.11732411026951833 -1.9590187562047066 1.2222565015841225
thorax -5.871077480893889 -0.8265569720932442 4.628338107724989
lowerneck -17.23629498330947 -2.998859126966087 -2.2526281750849098
upperneck 20.932888663613014 -3.6991712893817157 1.3100650040310784
head 9.471066282483342 -1.7793461389332335 0.3123796731568349
lclavicle 2.9838913924250633e-16 5.486306180756898e-17
lhumerus -29.697767745898236 -0.1325607641515778 81.18030203848286
lradius 34.26486446471928
lwrist 10.971959944602315
lhand -30.933368333986955 18.901331282962598
lfingers 7.125020000000001
lthumb -4.083501768755183 49.39711482046269
rclavicle 2.985234418631689e-16 5.48948292309658e-17
rhumerus -36.611604811143195 -22.347321501562835 -75.7745957325886
rradius 27.3932055888634
rwrist 4.513043829855949
rhand -17.944477177145604 23.242133612433527
rfingers 7.125020000000001
rthumb 8.416766939086816 -6.526521380948236
45
root 0.9621500541445311 17.79128343300043 1.8106736890025967 -2.098927764114038 2.071336895161369 2.3221699322524785
lfemur 15.700106058786687 -1.6805616128458531 -26.25844168060615
ltibia 18.51097285978971
lfoot -10.89366578036664 -2.828832631711767
ltoes -17.877556387809634
rfemur -27.655794899591037 2.754604019243109 19.298406298412583
rtibia 20.53226002120421
rfoot -6.157563936783748 -11.253273895817129
rtoes -3.572451185081275
lowerback 10.743189992222064 -1.0357980067501802 -5.122869710489208
upperback -0.027786332077926246 -2.0190020809214646 1.3111810750663564
thorax -5.8562860661357306 -0.8611566054636957 4.6884405790500345
lowerneck -17.261565174006233 -2.919134334770722 -2.203324640212805
upperneck 20.914154662386654 -3.5692993769351604 1.0560434621560453
head 9.455874981482538 -1.7388997596156357 0.2546165480975168
lclavicle 3.025985542500199e-16 5.692445712170145e-17
lhumerus -30.150154491845328 0.5633256810116691 81.17302604994659
lradius 33.894620873752736
lwrist 10.533233592419254
lhand -31.21553283536662 18.219784786232054
lfingers 7.125020000000001
lthumb -4.338106234246965 48.694279476645065
rclavicle 2.9851140100120834e-16 5.4886465516438316e-17
rhumerus -37.286857400721544 -23.446025456782518 -74.41688037546184
rradius 25.880396665902534
rwrist 5.6819283377329866
rhand -18.10723642866365 23.168657228096272
rfingers 7.125020000000001
rthumb 8.277423867994921 -6.55570688672098
46
root 0.8696735882538255 17.826165977019524 2.561501477790313 -2.5596093625653906 3.5250897090563003 2.0087161570910403
lfemur 16.52701509980667 -3.11000408578267 -25.571020239744982
ltibia 22.429083304380256
lfoot -9.044687638152773 -4.4822935825567
ltoes -21.309414510754426
rfemur -27.28144005087713 2.9814356172317504 19.584315540667344
rtibia 24.619984232772673
rfoot -3.615955218801747 -9.76953285313205
rtoes -3.165173167607838
lowerback 10.538152963652102 -1.4650423735160139 -5.023646955785348
upperback 0.04626113320087924 -2.4719474894674773 1.511848008465716
thorax -5.800661982264894 -1.0698744509869063 4.825450523282238
lowerneck -17.19339841996928 -2.8248892628254967 -2.1368730416366386
upperneck 20.992324086570314 -3.410250680791716 0.7424272522933634
head 9.4603763676317 -1.6913442878858789 0.18954797969970721
lclavicle 3.01503623057958e-16 5.6176309112092e-17
lhumerus -30.70287455707651 1.1999338205640346 81.19572324219757
lradius 33.228995009979755
lwrist 10.021236579192541
lhand -31.195809220411135 18.070495016656785
lfingers 7.125020000000001
lthumb -4.302163170629458 48.479715267042586
rclavicle 2.982895905139489e-16 5.472710290744143e-17
rhumerus -38.04726123425259 -24.70379281283943 -72.82752783423416
rradius 24.269416184821758
rwrist 7.092187435637825
rhand -18.23704627927829 22.94517272770769
rfingers 7.125020000000001
rthumb 8.148523196759049 -6.708633205866601
47
root 0.7927300393135144 17.860798024996015 3.3558730758192477 -3.427054636766476 4.055798305683245 -0.1490621523215876
lfemur 14.49350501033381 -4.093677568094231 -22.99331538838454
ltibia 30.394070680257755
lfoot -5.927659157929912 -7.195366467172351
ltoes -24.248972198098755
rfemur -25.785993970459966 3.1111759445674347 22.277164979589177
rtibia 27.083086845187882
rfoot -3.1001466642982995 -7.754170763240175
rtoes 0.6178059279911552
lowerback 10.80279380052088 -1.757614361388511 -3.2500667234665856
upperback -0.07051287402663434 -2.7048420934616964 1.9970306968912026
thorax -5.950607037162022 -1.1962199333594792 4.836370422209987
lowerneck -17.04723291109652 -2.7754506387287345 -2.0817238008787946
upperneck 21.255283029429993 -3.304959266135569 0.40201733247206106
head 9.529299425853834 -1.6692949062292948 0.11904960784966126
lclavicle 2.9804817676964587e-16 5.4479390434801505e-17
lhumerus -31.153485150275728 1.643071433177226 81.3494205187467
lradius 32.37458196014707
lwrist 9.521806492271043
lhand -30.769066748458986 18.633417742329243
lfingers 7.125020000000001
lthumb -3.928859624542486 48.79415712925691
rclavicle 2.985659199024007e-16 5.492550917768902e-17
rhumerus -38.78777670438619 -25.941147855707055 -71.43830464875316
rradius 22.997459836361358
rwrist 8.423629302304466
rhand -18.252922874237623 22.683034453885124
rfingers 7.125020000000001
rthumb 8.112951277528804 -6.874839549584015
48
root 0.713572359723732 17.93801689329183 3.9351496977477796 -4.272184315130417 3.9469003321881733 -1.4682849645806
lfemur 10.566620163221128 -4.227271528119662 -20.608742239484158
ltibia 40.14334540382639
lfoot -0.5446216225141152 -10.972477581764462
ltoes -25.756908358073645
rfemur -23.807598891683845 2.779386285787984 24.849426133143652
rtibia 29.37517745484154
rfoot -4.201512549488412 -6.923788156879096
rtoes 4.7450573717677695
lowerback 11.117804805055261 -1.7548252084604088 -2.0991780616923643
upperback -0.15742554254232607 -2.6008739275700714 2.3617249087126924
thorax -6.112958203142647 -1.1616007426920854 4.752270208214409
lowerneck -16.862798430776884 -2.778611356462651 -2.0155365400506757
upperneck 21.593463131336158 -3.2946063143725626 0.1405923725452365
head 9.61960077114747 -1.6850405404473627 0.0669861963479953
lclavicle 3.0158973054480646e-16 5.682634223229548e-17
lhumerus -31.44995399004017 2.0666968288348366 81.53461284481615
lradius 31.386206518969804
lwrist 8.697233103748198
lhand -30.02917314081388 19.84390909333169
lfingers 7.125020000000001
lthumb -3.257509096713466 49.83894768731642
rclavicle 2.985239459767798e-16 5.489573349826992e-17
rhumerus -39.04408704466837 -26.267559727985336 -71.07430096642254
rradius 22.565698225501972
rwrist 8.825596549158945
rhand -18.10585841859621 22.57772546567966
rfingers 7.125020000000001
rthumb 8.191584640681553 -6.973257467322671
